<svg width="846" height="135" viewBox="0 0 846 135" fill="none" xmlns="http://www.w3.org/2000/svg">
<path d="M69.0667 4C72.1459 -1.33333 79.8439 -1.33334 82.9231 4L150.906 121.75C153.985 127.083 150.136 133.75 143.978 133.75H8.01194C1.85354 133.75 -1.99547 127.083 1.08373 121.75L69.0667 4Z" fill="#0C0C0C"/>
<path d="M72.6498 132.359C74.2293 134.768 77.7606 134.768 79.3401 132.359L119.133 71.6657C120.877 69.0056 118.969 65.4725 115.788 65.4725H36.2022C33.0213 65.4725 31.113 69.0056 32.8571 71.6657L72.6498 132.359Z" fill="white"/>
<path d="M181.99 72.2854C181.99 59.5921 185.023 49.7454 191.09 42.7454C197.157 35.7454 205.603 32.2454 216.43 32.2454C227.257 32.2454 235.703 35.7454 241.77 42.7454C247.837 49.7454 250.87 59.5921 250.87 72.2854V94.1254C250.87 107.192 247.837 117.132 241.77 123.945C235.703 130.759 227.257 134.165 216.43 134.165C205.603 134.165 197.157 130.759 191.09 123.945C185.023 117.132 181.99 107.192 181.99 94.1254V72.2854ZM216.43 123.245C223.99 123.245 229.637 120.679 233.37 115.545C237.197 110.319 239.11 102.899 239.11 93.2854V73.1254C239.11 64.1654 237.197 56.9321 233.37 51.4254C229.637 45.9188 223.99 43.1654 216.43 43.1654C208.87 43.1654 203.177 45.9188 199.35 51.4254C195.617 56.9321 193.75 64.1654 193.75 73.1254V93.2854C193.75 102.899 195.617 110.319 199.35 115.545C203.177 120.679 208.87 123.245 216.43 123.245Z" fill="black"/>
<path d="M267.573 62.7654H292.773V72.0054H294.453C296.226 68.1788 298.746 65.3788 302.013 63.6054C305.279 61.7388 309.013 60.8054 313.213 60.8054C320.213 60.8054 325.859 63.0921 330.153 67.6654C334.446 72.2388 336.733 78.9121 337.013 87.6854L325.533 89.3654C325.533 82.9254 323.993 78.3054 320.913 75.5054C317.833 72.6121 314.053 71.1654 309.573 71.1654C306.679 71.1654 304.159 71.7254 302.013 72.8454C299.959 73.9654 298.233 75.5054 296.833 77.4654C295.433 79.4254 294.406 81.7121 293.753 84.3254C293.099 86.9388 292.773 89.7388 292.773 92.7254V122.125H310.413V132.205H265.893V122.125H281.853V72.8454H267.573V62.7654Z" fill="black"/>
<path d="M378.775 42.0454C378.775 39.3388 379.709 37.0521 381.575 35.1854C383.535 33.2254 385.869 32.2454 388.575 32.2454C391.282 32.2454 393.569 33.2254 395.435 35.1854C397.395 37.0521 398.375 39.3388 398.375 42.0454C398.375 44.7521 397.395 47.0854 395.435 49.0454C393.569 50.9121 391.282 51.8454 388.575 51.8454C385.869 51.8454 383.535 50.9121 381.575 49.0454C379.709 47.0854 378.775 44.7521 378.775 42.0454ZM358.895 122.125H383.255V72.8454H361.415V62.7654H394.175V122.125H416.855V132.205H358.895V122.125Z" fill="black"/>
<path d="M507.898 107.565C507.151 111.392 505.845 114.939 503.978 118.205C502.204 121.472 499.918 124.319 497.118 126.745C494.318 129.079 491.051 130.899 487.318 132.205C483.585 133.512 479.431 134.165 474.858 134.165C470.005 134.165 465.384 133.372 460.998 131.785C456.704 130.199 452.924 127.912 449.658 124.925C446.391 121.845 443.778 118.112 441.818 113.725C439.951 109.339 439.018 104.299 439.018 98.6054V96.9254C439.018 91.3254 439.951 86.2854 441.818 81.8054C443.778 77.3254 446.391 73.5454 449.658 70.4654C452.924 67.3854 456.704 65.0054 460.998 63.3254C465.384 61.6454 470.005 60.8054 474.858 60.8054C479.245 60.8054 483.305 61.4588 487.038 62.7654C490.771 64.0721 494.038 65.9388 496.838 68.3654C499.731 70.6988 502.065 73.4988 503.838 76.7654C505.705 80.0321 506.965 83.5788 507.618 87.4054L496.698 89.9254C496.418 87.4988 495.718 85.1654 494.598 82.9254C493.571 80.5921 492.125 78.5854 490.258 76.9054C488.484 75.1321 486.291 73.7321 483.678 72.7054C481.065 71.6788 478.031 71.1654 474.578 71.1654C471.218 71.1654 468.044 71.8188 465.058 73.1254C462.164 74.3388 459.598 76.1121 457.358 78.4454C455.118 80.6854 453.345 83.3921 452.038 86.5654C450.825 89.7388 450.218 93.1921 450.218 96.9254V98.6054C450.218 102.525 450.825 106.072 452.038 109.245C453.345 112.325 455.118 114.939 457.358 117.085C459.598 119.232 462.211 120.912 465.198 122.125C468.185 123.245 471.405 123.805 474.858 123.805C478.311 123.805 481.298 123.292 483.818 122.265C486.431 121.145 488.625 119.745 490.398 118.065C492.265 116.292 493.711 114.285 494.738 112.045C495.858 109.805 496.605 107.472 496.978 105.045L507.898 107.565Z" fill="black"/>
<path d="M594.181 98.3254C594.181 104.112 593.201 109.245 591.241 113.725C589.374 118.112 586.854 121.845 583.681 124.925C580.507 127.912 576.774 130.199 572.48 131.785C568.28 133.372 563.894 134.165 559.32 134.165C554.654 134.165 550.221 133.372 546.021 131.785C541.82 130.199 538.134 127.912 534.961 124.925C531.787 121.845 529.22 118.112 527.26 113.725C525.394 109.245 524.461 104.112 524.461 98.3254V96.6454C524.461 90.9521 525.394 85.9121 527.26 81.5254C529.22 77.0454 531.787 73.2654 534.961 70.1854C538.227 67.1054 541.96 64.7721 546.16 63.1854C550.361 61.5988 554.747 60.8054 559.32 60.8054C563.894 60.8054 568.28 61.5988 572.48 63.1854C576.681 64.7721 580.367 67.1054 583.54 70.1854C586.807 73.2654 589.374 77.0454 591.241 81.5254C593.201 85.9121 594.181 90.9521 594.181 96.6454V98.3254ZM559.32 123.805C562.68 123.805 565.76 123.245 568.56 122.125C571.454 120.912 573.974 119.185 576.121 116.945C578.267 114.705 579.947 112.045 581.16 108.965C582.374 105.792 582.98 102.245 582.98 98.3254V96.6454C582.98 92.9121 582.374 89.5054 581.16 86.4254C579.947 83.2521 578.267 80.5454 576.121 78.3054C573.974 76.0654 571.454 74.3388 568.56 73.1254C565.667 71.8188 562.587 71.1654 559.32 71.1654C556.054 71.1654 552.974 71.8188 550.081 73.1254C547.187 74.3388 544.667 76.0654 542.521 78.3054C540.374 80.5454 538.694 83.2521 537.48 86.4254C536.267 89.5054 535.66 92.9121 535.66 96.6454V98.3254C535.66 102.245 536.267 105.792 537.48 108.965C538.694 112.045 540.374 114.705 542.521 116.945C544.667 119.185 547.141 120.912 549.94 122.125C552.834 123.245 555.96 123.805 559.32 123.805Z" fill="black"/>
<path d="M668.143 121.565H666.463C665.343 123.712 663.897 125.579 662.123 127.165C660.443 128.752 658.577 130.059 656.523 131.085C654.563 132.112 652.463 132.859 650.223 133.325C647.983 133.885 645.837 134.165 643.783 134.165C639.117 134.165 634.776 133.372 630.763 131.785C626.75 130.199 623.203 127.912 620.123 124.925C617.137 121.939 614.757 118.252 612.983 113.865C611.303 109.385 610.463 104.299 610.463 98.6054V96.3654C610.463 90.7654 611.35 85.7721 613.123 81.3854C614.897 76.9054 617.276 73.1721 620.263 70.1854C623.25 67.1054 626.75 64.7721 630.763 63.1854C634.776 61.5988 639.023 60.8054 643.503 60.8054C648.263 60.8054 652.697 61.8788 656.803 64.0254C661.003 66.0788 664.223 69.2988 666.463 73.6854H668.143V34.2054H679.063V132.205H668.143V121.565ZM644.903 123.805C648.17 123.805 651.203 123.199 654.003 121.985C656.803 120.772 659.23 119.045 661.283 116.805C663.43 114.565 665.11 111.905 666.323 108.825C667.536 105.652 668.143 102.152 668.143 98.3254V96.6454C668.143 92.9121 667.536 89.5054 666.323 86.4254C665.11 83.2521 663.43 80.5454 661.283 78.3054C659.23 76.0654 656.757 74.3388 653.863 73.1254C651.063 71.8188 648.077 71.1654 644.903 71.1654C641.637 71.1654 638.556 71.7721 635.663 72.9854C632.863 74.1988 630.39 75.9254 628.243 78.1654C626.19 80.4054 624.556 83.0654 623.343 86.1454C622.223 89.2254 621.663 92.6321 621.663 96.3654V98.6054C621.663 102.525 622.223 106.025 623.343 109.105C624.556 112.185 626.19 114.845 628.243 117.085C630.39 119.232 632.863 120.912 635.663 122.125C638.463 123.245 641.543 123.805 644.903 123.805Z" fill="black"/>
<path d="M708.086 100.845C708.366 107.752 710.512 113.305 714.526 117.505C718.539 121.705 724.139 123.805 731.326 123.805C734.592 123.805 737.439 123.432 739.866 122.685C742.292 121.939 744.346 120.912 746.026 119.605C747.799 118.299 749.199 116.805 750.226 115.125C751.346 113.352 752.232 111.485 752.886 109.525L763.246 112.325C761.286 118.765 757.646 124.039 752.326 128.145C747.099 132.159 740.006 134.165 731.046 134.165C726.099 134.165 721.526 133.325 717.326 131.645C713.219 129.872 709.672 127.399 706.686 124.225C703.699 121.052 701.366 117.272 699.686 112.885C698.006 108.499 697.166 103.645 697.166 98.3254V94.9654C697.166 90.1121 698.006 85.5854 699.686 81.3854C701.459 77.1854 703.886 73.5921 706.966 70.6054C710.046 67.5254 713.639 65.1454 717.746 63.4654C721.946 61.6921 726.472 60.8054 731.326 60.8054C737.019 60.8054 741.919 61.8788 746.026 64.0254C750.226 66.0788 753.632 68.6454 756.246 71.7254C758.952 74.8054 760.912 78.1654 762.126 81.8054C763.432 85.4454 764.086 88.8054 764.086 91.8854V100.845H708.086ZM731.326 71.1654C728.246 71.1654 725.352 71.6788 722.646 72.7054C720.032 73.6388 717.699 74.9921 715.646 76.7654C713.686 78.5388 712.052 80.6388 710.746 83.0654C709.532 85.3988 708.739 87.9654 708.366 90.7654H753.166C752.979 87.7788 752.232 85.0721 750.926 82.6454C749.712 80.2188 748.079 78.1654 746.026 76.4854C744.066 74.8054 741.779 73.4988 739.166 72.5654C736.646 71.6321 734.032 71.1654 731.326 71.1654Z" fill="black"/>
<path d="M800.248 80.6854C800.248 84.0454 801.648 86.6121 804.448 88.3854C807.342 90.1588 812.568 91.3254 820.128 91.8854C828.248 92.5388 834.408 94.4988 838.608 97.7654C842.902 100.939 845.048 105.605 845.048 111.765V112.605C845.048 115.965 844.348 118.999 842.948 121.705C841.642 124.319 839.775 126.559 837.348 128.425C835.015 130.292 832.122 131.692 828.668 132.625C825.308 133.652 821.622 134.165 817.608 134.165C812.195 134.165 807.528 133.465 803.608 132.065C799.782 130.572 796.562 128.659 793.948 126.325C791.428 123.899 789.515 121.192 788.208 118.205C786.902 115.125 786.155 112.045 785.968 108.965L796.328 106.445C796.795 111.765 798.848 116.059 802.488 119.325C806.128 122.499 810.982 124.085 817.048 124.085C822.182 124.085 826.288 123.105 829.368 121.145C832.542 119.092 834.128 116.245 834.128 112.605C834.128 108.685 832.588 105.885 829.508 104.205C826.428 102.525 821.435 101.452 814.528 100.985C806.502 100.425 800.342 98.5588 796.048 95.3854C791.755 92.2121 789.608 87.5921 789.608 81.5254V80.6854C789.608 77.4188 790.308 74.5721 791.708 72.1454C793.108 69.6254 794.975 67.5254 797.308 65.8454C799.735 64.1654 802.442 62.9054 805.428 62.0654C808.415 61.2254 811.542 60.8054 814.808 60.8054C819.382 60.8054 823.395 61.4588 826.848 62.7654C830.302 63.9788 833.195 65.6121 835.528 67.6654C837.862 69.6254 839.635 71.9121 840.848 74.5254C842.155 77.1388 842.995 79.7521 843.368 82.3654L833.008 84.8854C832.542 80.4054 830.722 76.9054 827.548 74.3854C824.468 71.8654 820.408 70.6054 815.368 70.6054C813.408 70.6054 811.495 70.8388 809.628 71.3054C807.855 71.6788 806.268 72.2854 804.868 73.1254C803.468 73.9654 802.348 75.0388 801.508 76.3454C800.668 77.5588 800.248 79.0054 800.248 80.6854Z" fill="black"/>
</svg>
